<?xml version="1.0" standalone="no"?>
<!DOCTYPE svg PUBLIC "-//W3C//DTD SVG 20010904//EN"
 "http://www.w3.org/TR/2001/REC-SVG-20010904/DTD/svg10.dtd">
<svg version="1.0" xmlns="http://www.w3.org/2000/svg"
 width="149.000000pt" height="149.000000pt" viewBox="0 0 149.000000 149.000000"
 preserveAspectRatio="xMidYMid meet">
<metadata>
Created by potrace 1.14, written by Peter Selinger 2001-2017
</metadata>
<g transform="translate(0.000000,149.000000) scale(0.100000,-0.100000)"
fill="#000000" stroke="none">
<path d="M193 1308 c1 -24 7 -50 12 -58 6 -8 10 -120 10 -252 1 -189 -2 -238
-12 -238 -11 0 -18 -27 -14 -52 0 -5 -5 -8 -13 -8 -14 0 -30 -39 -18 -41 4 -1
267 -2 585 -3 l577 -1 0 22 c0 16 -6 23 -20 23 -16 0 -19 5 -16 26 3 15 0 27
-8 30 -10 4 -13 57 -12 247 1 133 5 249 10 257 6 8 10 31 11 52 1 33 -2 38
-21 38 -14 0 -24 -8 -27 -21 -6 -23 -27 -17 -27 7 0 8 -9 14 -20 14 -12 0 -17
-5 -14 -14 3 -8 -3 -16 -15 -19 -13 -3 -21 1 -24 14 -7 25 -37 25 -37 -1 0
-13 -5 -18 -15 -14 -8 4 -15 13 -15 21 0 8 -7 13 -17 11 -21 -4 -25 -50 -8
-93 7 -16 12 -69 13 -117 1 -87 1 -88 -24 -88 -17 0 -24 -5 -24 -20 0 -11 -5
-20 -11 -20 -6 0 -13 9 -16 20 -3 13 -14 20 -29 20 -16 0 -22 -4 -18 -14 3 -7
-2 -16 -11 -20 -12 -4 -19 0 -22 14 -3 11 -14 20 -24 20 -25 0 -26 52 -1 88
10 15 17 34 17 42 -1 8 -3 21 -3 28 -3 19 -39 14 -44 -6 -3 -10 -13 -19 -22
-19 -9 0 -16 8 -16 19 0 13 -8 18 -31 18 -19 0 -28 -4 -23 -11 7 -12 -12 -29
-33 -29 -7 0 -13 9 -13 20 0 16 -7 20 -30 20 -23 0 -30 -5 -30 -19 0 -13 -7
-18 -22 -17 -16 1 -22 7 -20 19 2 12 -4 17 -21 17 -35 0 -36 -59 -2 -92 14
-13 25 -34 25 -50 0 -24 -4 -28 -26 -28 -19 0 -25 -4 -21 -15 4 -8 2 -17 -4
-21 -6 -3 -13 3 -16 15 -7 29 -53 30 -53 1 0 -11 -4 -20 -9 -20 -5 0 -11 9
-14 20 -3 12 -14 20 -25 20 -19 0 -20 7 -21 89 0 50 5 104 12 123 7 18 12 40
11 48 -1 8 -2 21 -3 28 -2 21 -38 14 -44 -9 -6 -23 -27 -17 -27 7 0 8 -9 14
-20 14 -11 0 -20 -7 -20 -15 0 -9 -9 -15 -21 -15 -15 0 -19 5 -15 15 4 10 -1
15 -14 15 -11 0 -20 -6 -20 -14 0 -23 -31 -29 -37 -6 -3 11 -12 20 -20 20 -10
0 -13 -11 -10 -42z"/>
<path d="M166 603 c-2 -10 -4 -107 -3 -217 l2 -199 165 1 c91 0 172 1 180 1
14 1 19 40 11 93 -1 4 -38 7 -83 7 -152 -2 -143 -5 -143 41 l0 40 101 0 c66 0
104 4 106 11 2 6 2 27 0 46 l-4 34 -72 -1 c-136 -3 -133 -3 -130 28 1 15 2 30
3 33 1 3 50 5 110 4 l110 -1 -1 47 0 47 -173 1 c-159 2 -174 0 -179 -16z"/>
<path d="M599 607 c-6 -51 -2 -417 3 -418 10 -1 52 -1 81 0 22 1 22 2 20 157
-1 86 -1 155 1 153 2 -2 20 -69 41 -149 21 -80 42 -149 46 -154 8 -9 85 -13
93 -5 3 2 22 72 44 154 44 162 44 162 43 -37 -1 -131 -9 -118 72 -121 l32 -1
3 217 2 216 -86 -2 -87 -2 -13 -45 c-8 -25 -16 -54 -18 -65 -6 -29 -26 -108
-33 -125 -5 -16 -14 11 -53 156 l-22 82 -84 0 c-58 1 -84 -3 -85 -11z"/>
<path d="M1170 404 c0 -197 1 -214 18 -215 9 0 38 -1 65 -2 l47 -2 1 38 c0 48
0 363 0 382 -1 11 -16 14 -66 14 l-65 -1 0 -214z"/>
</g>
</svg>
